<svg width="30" height="30" fill="none" xmlns="http://www.w3.org/2000/svg"><circle cx="15" cy="15" r="15" fill="#F4F4F4"/><path d="M15.4 24a.948.948 0 0 1-.65-.26 191.57 191.57 0 0 0-1.91-1.76l-.003-.003c-1.693-1.542-3.153-2.877-4.17-4.19C7.528 16.316 7 14.926 7 13.405c0-1.479.473-2.842 1.332-3.84C9.202 8.556 10.396 8 11.692 8c.971 0 1.857.327 2.638.977.394.326.752.727 1.067 1.194a5.636 5.636 0 0 1 1.066-1.194c.788-.65 1.674-.977 2.645-.977 1.296 0 2.49.555 3.36 1.567.86.997 1.332 2.36 1.332 3.839 0 1.52-.528 2.912-1.667 4.38-1.017 1.314-2.477 2.649-4.17 4.19-.578.528-1.234 1.125-1.913 1.764a.948.948 0 0 1-.65.26zM11.692 9.054a3.438 3.438 0 0 0-2.635 1.226c-.692.804-1.073 1.914-1.073 3.126 0 1.278.443 2.424 1.44 3.71.962 1.243 2.396 2.55 4.053 4.06l.003.003c.581.53 1.237 1.128 1.92 1.767.69-.643 1.345-1.24 1.926-1.77 1.657-1.514 3.088-2.817 4.052-4.06.995-1.286 1.44-2.431 1.44-3.71 0-1.212-.38-2.322-1.072-3.126-.683-.79-1.621-1.226-2.638-1.226-.748 0-1.434.253-2.038.755-.538.446-.915 1.012-1.135 1.405a.608.608 0 0 1-.535.323.615.615 0 0 1-.535-.323c-.22-.397-.597-.959-1.135-1.405-.604-.502-1.29-.755-2.038-.755z" fill="#333"/></svg>