<svg width="19" height="23" fill="none" xmlns="http://www.w3.org/2000/svg"><path d="m18.945 19.886.002.008a.177.177 0 0 1 .003.044c0 1.654-1.567 3.012-3.513 3.012H3.563C1.617 22.95.05 21.592.05 19.938c0-.006 0-.012.002-.022.001-.009.003-.02.003-.032L1.414 5.056a.593.593 0 0 1 .6-.533H4.86v-.05C4.9 2.029 6.964.05 9.5.05c2.537 0 4.6 1.978 4.64 4.424v.049h2.845c.311 0 .574.231.601.533l1.36 14.83zM12.88 4.523h.05v-.051C12.889 2.67 11.366 1.22 9.5 1.22S6.11 2.67 6.071 4.472v.051h6.808zM1.26 19.962v.005c.02 1.01 1.053 1.813 2.302 1.813h11.874c1.244 0 2.282-.802 2.302-1.813v-.005L16.433 5.743l-.004-.045H14.14v1.978a.593.593 0 0 1-.605.585.593.593 0 0 1-.605-.585V5.698H6.067v1.978a.593.593 0 0 1-.606.585.593.593 0 0 1-.605-.585V5.698h-2.29l-.004.045L1.26 19.962z" fill="#fff" stroke="#393939" stroke-width=".1"/></svg>