<svg width="21" height="20" fill="none" xmlns="http://www.w3.org/2000/svg"><path d="m7.333 17.437-.003-.003c-2.117-1.929-3.939-3.594-5.207-5.232C.705 10.373.05 8.645.05 6.757c0-1.838.587-3.53 1.653-4.766C2.781.737 4.26.05 5.865.05c1.202 0 2.298.404 3.266 1.21.488.404.932.901 1.323 1.481l.042.062.041-.062a6.992 6.992 0 0 1 1.324-1.482C12.837.454 13.933.05 15.135.05c1.605 0 3.084.687 4.162 1.94 1.066 1.238 1.653 2.93 1.653 4.767 0 1.888-.655 3.617-2.073 5.445-1.268 1.638-3.09 3.303-5.207 5.232l-.152.138a189.63 189.63 0 0 0-2.24 2.067 1.135 1.135 0 0 1-.778.311c-.286 0-.561-.11-.778-.311a265.148 265.148 0 0 0-2.386-2.2l-.003-.002zm.731-.929.003.003.233.213c.667.609 1.403 1.28 2.166 1.995l.034.032.034-.032c.758-.706 1.483-1.369 2.141-1.97l.266-.242-.033-.037.033.037.069-.063c2.04-1.864 3.807-3.478 5.003-5.02 1.247-1.613 1.81-3.055 1.81-4.667 0-1.525-.478-2.924-1.353-3.94-.862-.999-2.049-1.55-3.335-1.55-.948 0-1.816.32-2.58.956-.678.563-1.154 1.276-1.43 1.77a.71.71 0 0 1-.625.379.719.719 0 0 1-.625-.379c-.277-.5-.752-1.207-1.43-1.77-.764-.635-1.632-.956-2.58-.956-1.286 0-2.473.551-3.331 1.55-.875 1.016-1.354 2.415-1.354 3.94 0 1.612.56 3.054 1.811 4.668 1.204 1.556 2.997 3.19 5.063 5.074l.007.006.003.003z" fill="#fff" stroke="#393939" stroke-width=".1"/></svg>