<svg width="22" height="22" fill="none" xmlns="http://www.w3.org/2000/svg"><g clip-path="url(#a)"><path d="M15.125 0h-8.25A6.875 6.875 0 0 0 0 6.875v8.25A6.875 6.875 0 0 0 6.875 22h8.25A6.875 6.875 0 0 0 22 15.125v-8.25A6.875 6.875 0 0 0 15.125 0zm4.813 15.125a4.818 4.818 0 0 1-4.813 4.813h-8.25a4.818 4.818 0 0 1-4.813-4.813v-8.25a4.818 4.818 0 0 1 4.813-4.813h8.25a4.818 4.818 0 0 1 4.813 4.813v8.25z" fill="url(#b)"/><path d="M11 5.5a5.5 5.5 0 1 0 0 11 5.5 5.5 0 0 0 0-11zm0 8.938A3.442 3.442 0 0 1 7.562 11 3.441 3.441 0 0 1 11 7.562 3.441 3.441 0 0 1 14.438 11 3.442 3.442 0 0 1 11 14.438z" fill="url(#c)"/><path d="M16.913 5.82a.733.733 0 1 0 0-1.465.733.733 0 0 0 0 1.465z" fill="url(#d)"/></g><defs><linearGradient id="b" x1="2.014" y1="19.986" x2="19.986" y2="2.014" gradientUnits="userSpaceOnUse"><stop stop-color="#FFC107"/><stop offset=".507" stop-color="#F44336"/><stop offset=".99" stop-color="#9C27B0"/></linearGradient><linearGradient id="c" x1="7.111" y1="14.889" x2="14.889" y2="7.111" gradientUnits="userSpaceOnUse"><stop stop-color="#FFC107"/><stop offset=".507" stop-color="#F44336"/><stop offset=".99" stop-color="#9C27B0"/></linearGradient><linearGradient id="d" x1="16.394" y1="5.606" x2="17.431" y2="4.569" gradientUnits="userSpaceOnUse"><stop stop-color="#FFC107"/><stop offset=".507" stop-color="#F44336"/><stop offset=".99" stop-color="#9C27B0"/></linearGradient><clipPath id="a"><path fill="#fff" d="M0 0h22v22H0z"/></clipPath></defs></svg>