<svg width="38" height="32" fill="none" xmlns="http://www.w3.org/2000/svg"><path d="M13.048 27.926v-1.58a.954.954 0 0 0-.262-.724.914.914 0 0 0-.705-.276.936.936 0 0 0-.493.103.961.961 0 0 0-.373.345.915.915 0 0 0-.348-.338.89.89 0 0 0-.467-.11.799.799 0 0 0-.41.09.82.82 0 0 0-.312.285v-.311H9.14v2.516h.542v-1.394a.6.6 0 0 1 .146-.48.573.573 0 0 1 .457-.19c.356 0 .537.238.537.665v1.4h.541v-1.395a.607.607 0 0 1 .149-.479.579.579 0 0 1 .455-.19c.366 0 .541.237.541.664v1.4h.539zm3.017-1.257v-1.257h-.542v.306a.916.916 0 0 0-.774-.369c-.341 0-.669.139-.91.386a1.333 1.333 0 0 0-.378.932c0 .349.136.684.377.931.242.247.57.386.912.386a.917.917 0 0 0 .774-.369v.306h.536l.005-1.252zm-1.993 0a.772.772 0 0 1 .146-.41.748.748 0 0 1 .342-.26.73.73 0 0 1 .797.191.768.768 0 0 1 .144.823.758.758 0 0 1-.273.335.733.733 0 0 1-.409.128.724.724 0 0 1-.55-.233.758.758 0 0 1-.202-.574h.005zm13.452-1.317c.177 0 .352.033.516.1a1.288 1.288 0 0 1 .699.698c.134.338.134.716 0 1.054a1.274 1.274 0 0 1-.699.699 1.43 1.43 0 0 1-1.057 0 1.273 1.273 0 0 1-.694-.699 1.429 1.429 0 0 1 0-1.054 1.273 1.273 0 0 1 .694-.698c.17-.072.352-.11.536-.108l.005.008zm0 .527a.783.783 0 0 0-.307.058.722.722 0 0 0-.407.43.933.933 0 0 0 0 .653.721.721 0 0 0 .407.43.822.822 0 0 0 .87-.167.768.768 0 0 0 .162-.263.934.934 0 0 0 0-.654.767.767 0 0 0-.163-.263.735.735 0 0 0-.257-.166.786.786 0 0 0-.31-.074l.005.016zm-8.545.79c0-.79-.48-1.317-1.168-1.317a1.276 1.276 0 0 0-.907.398c-.238.251-.37.588-.364.938.004.35.145.682.39.926.245.244.575.378.917.373.367.013.726-.113 1.008-.353l-.258-.406a1.15 1.15 0 0 1-.717.263.673.673 0 0 1-.49-.155.702.702 0 0 1-.247-.461h1.828c.008-.066.008-.132.008-.206zm-1.834-.221a.654.654 0 0 1 .204-.438.627.627 0 0 1 .444-.17.6.6 0 0 1 .436.173.625.625 0 0 1 .188.438l-1.272-.003zm4.09-.396a1.56 1.56 0 0 0-.773-.216c-.294 0-.47.111-.47.296 0 .184.186.216.418.247l.258.037c.536.08.861.311.861.754s-.413.822-1.122.822a1.75 1.75 0 0 1-1.065-.327l.258-.427c.237.18.526.273.82.264.366 0 .562-.11.562-.306 0-.142-.139-.221-.433-.263l-.258-.037c-.552-.08-.85-.332-.85-.743 0-.501.402-.807 1.03-.807.353-.012.701.08 1.004.264l-.24.442zm2.579-.142h-.875v1.136c0 .264.088.422.356.422a.973.973 0 0 0 .475-.143l.155.47a1.239 1.239 0 0 1-.67.194c-.635 0-.857-.347-.857-.932V25.91h-.5v-.5h.5v-.765h.541v.765h.875v.5zm1.854-.564c.13 0 .259.024.381.069l-.165.527a.853.853 0 0 0-.335-.063c-.35 0-.516.231-.516.648v1.41h-.536V25.42h.531v.306a.734.734 0 0 1 .276-.276.715.715 0 0 1 .374-.093l-.01-.01zm3.708 2.214a.252.252 0 0 1 .178.071.25.25 0 0 1 0 .353.26.26 0 0 1-.178.074.253.253 0 0 1-.138-.042.262.262 0 0 1-.094-.11.253.253 0 0 1 .054-.275.258.258 0 0 1 .165-.071h.013zm0 .445a.179.179 0 0 0 .134-.058.197.197 0 0 0-.06-.316.182.182 0 0 0-.15 0 .19.19 0 0 0-.061.042.198.198 0 0 0 0 .264.192.192 0 0 0 .137.058v.01zm.015-.313a.101.101 0 0 1 .067.02.067.067 0 0 1 .023.056.064.064 0 0 1-.018.048.09.09 0 0 1-.054.023l.075.087h-.06l-.069-.087h-.023v.087h-.05v-.242l.11.008zm-.056.044v.064h.056c.01.003.021.003.031 0a.027.027 0 0 0 0-.024.027.027 0 0 0 .003-.012.027.027 0 0 0-.003-.012.054.054 0 0 0-.03 0l-.058-.015z" fill="#000"/><path d="M23.04 6.208h-8.123v14.92h8.123V6.207z" fill="#7673C0"/><path d="M15.433 13.67a9.645 9.645 0 0 1 .931-4.148 9.436 9.436 0 0 1 2.615-3.313 9.175 9.175 0 0 0-4.746-1.973 9.108 9.108 0 0 0-5.048.9 9.356 9.356 0 0 0-3.811 3.5 9.642 9.642 0 0 0-1.414 5.033c0 1.78.49 3.524 1.414 5.033a9.356 9.356 0 0 0 3.811 3.5 9.108 9.108 0 0 0 5.048.9 9.174 9.174 0 0 0 4.746-1.974 9.436 9.436 0 0 1-2.614-3.311 9.644 9.644 0 0 1-.932-4.147z" fill="#EB001B"/><path d="M33.112 19.546v-.295h.121v-.064h-.307v.064h.121v.305l.065-.01zm.596 0v-.369h-.093l-.108.264-.109-.264h-.095v.369h.067v-.277l.1.24h.07l.1-.24v.28l.068-.003zm.288-5.876c0 1.779-.49 3.523-1.414 5.031A9.356 9.356 0 0 1 28.77 22.2a9.11 9.11 0 0 1-5.047.9 9.175 9.175 0 0 1-4.745-1.973 9.451 9.451 0 0 0 2.613-3.312 9.66 9.66 0 0 0 .934-4.147 9.66 9.66 0 0 0-.934-4.147 9.451 9.451 0 0 0-2.613-3.313 9.175 9.175 0 0 1 4.746-1.974 9.108 9.108 0 0 1 5.048.9 9.356 9.356 0 0 1 3.812 3.499 9.642 9.642 0 0 1 1.414 5.034l-.003.002z" fill="#00A1DF"/></svg>