<svg width="31" height="25" fill="none" xmlns="http://www.w3.org/2000/svg"><path d="M6.245 24.863v-1.59a.971.971 0 0 0-.262-.73.912.912 0 0 0-.703-.278.926.926 0 0 0-.491.104.961.961 0 0 0-.372.347.914.914 0 0 0-.346-.34.878.878 0 0 0-.465-.11.79.79 0 0 0-.408.089.82.82 0 0 0-.311.287v-.313h-.535v2.534h.54v-1.394a.612.612 0 0 1 .147-.483.574.574 0 0 1 .454-.19c.354 0 .534.238.534.667v1.41h.539V23.47a.615.615 0 0 1 .148-.482.578.578 0 0 1 .453-.192c.365 0 .54.239.54.668v1.41l.538-.01zm7.98-2.534h-.88v-.769h-.538v.769h-.488v.503h.498V24c0 .588.22.938.852.938.236.001.468-.067.668-.196l-.154-.472a.963.963 0 0 1-.472.143c-.257 0-.355-.17-.355-.424v-1.155h.873l-.005-.504zm4.555-.064a.706.706 0 0 0-.373.094.736.736 0 0 0-.274.277v-.307h-.53v2.534h.535v-1.42c0-.42.174-.653.513-.653a.847.847 0 0 1 .334.064l.165-.53a1.113 1.113 0 0 0-.38-.07l.01.011zm-6.888.265a1.792 1.792 0 0 0-1.001-.265c-.621 0-1.027.308-1.027.811 0 .414.298.668.847.748l.257.037c.293.042.431.122.431.265 0 .196-.195.308-.56.308a1.28 1.28 0 0 1-.816-.265l-.257.429c.311.224.684.34 1.063.329.71 0 1.12-.345 1.12-.827 0-.483-.324-.679-.858-.759l-.257-.037c-.23-.031-.416-.08-.416-.249 0-.17.175-.297.468-.297.27.004.536.078.77.218l.236-.446zm14.307-.265a.706.706 0 0 0-.373.094.736.736 0 0 0-.274.277v-.307h-.53v2.534h.535v-1.42c0-.42.174-.653.513-.653a.847.847 0 0 1 .334.064l.165-.53a1.113 1.113 0 0 0-.38-.07l.01.011zm-6.883 1.326a1.316 1.316 0 0 0 .372.961 1.206 1.206 0 0 0 .938.364c.32.017.636-.091.883-.302l-.256-.445c-.185.145-.41.225-.642.227a.78.78 0 0 1-.516-.259.828.828 0 0 1 0-1.103.78.78 0 0 1 .516-.26c.232.003.457.083.642.228l.256-.445a1.258 1.258 0 0 0-.883-.302 1.204 1.204 0 0 0-.506.08 1.263 1.263 0 0 0-.716.724 1.316 1.316 0 0 0-.087.521v.01zm5.003 0v-1.262h-.534v.307a.938.938 0 0 0-.342-.281.908.908 0 0 0-.429-.09c-.34 0-.667.14-.907.388a1.35 1.35 0 0 0-.377.938c0 .351.136.688.377.937.24.248.567.388.907.388a.908.908 0 0 0 .429-.09.937.937 0 0 0 .342-.281v.307h.534v-1.261zm-1.988 0a.782.782 0 0 1 .146-.413.745.745 0 0 1 .34-.262.72.72 0 0 1 .794.193.789.789 0 0 1 .144.828.762.762 0 0 1-.272.337.726.726 0 0 1-.951-.11.766.766 0 0 1-.2-.573zm-6.445-1.326a1.27 1.27 0 0 0-.903.401 1.35 1.35 0 0 0-.363.943c.004.352.144.687.388.932.245.245.573.38.914.375.37.02.732-.103 1.02-.345l-.258-.408a1.147 1.147 0 0 1-.714.265.666.666 0 0 1-.489-.156.709.709 0 0 1-.245-.464h1.823v-.212c0-.795-.477-1.326-1.166-1.326l-.007-.005zm0 .493a.59.59 0 0 1 .434.175.629.629 0 0 1 .187.44h-1.284a.66.66 0 0 1 .205-.445.62.62 0 0 1 .447-.17h.01zm13.381.838V21.31h-.513v1.325a.939.939 0 0 0-.342-.281.908.908 0 0 0-.429-.09c-.34 0-.667.14-.907.388a1.35 1.35 0 0 0-.377.938c0 .351.136.688.377.937.24.248.567.388.907.388a.908.908 0 0 0 .429-.09.938.938 0 0 0 .342-.281v.307h.513v-1.256zm.892.898a.25.25 0 0 1 .177.072.254.254 0 0 1 0 .355.256.256 0 0 1-.178.075.25.25 0 0 1-.137-.043.262.262 0 0 1-.094-.111.255.255 0 0 1 .054-.276.25.25 0 0 1 .185-.072h-.008zm0 .448a.176.176 0 0 0 .133-.058.2.2 0 0 0 0-.265.18.18 0 0 0-.208-.042.188.188 0 0 0-.062.042.2.2 0 0 0 0 .265.189.189 0 0 0 .144.058h-.008zm.015-.315a.1.1 0 0 1 .067.021.067.067 0 0 1 .023.056.067.067 0 0 1-.018.048.089.089 0 0 1-.054.024l.074.087h-.059l-.07-.087h-.022v.087h-.049v-.233l.108-.003zm-.057.045v.064h.057c.01.003.02.003.03 0a.027.027 0 0 0 0-.024.027.027 0 0 0 0-.024.052.052 0 0 0-.03 0l-.057-.016zm-2.824-1.076a.781.781 0 0 1 .145-.413.744.744 0 0 1 .341-.262.72.72 0 0 1 .793.193.789.789 0 0 1 .144.828.762.762 0 0 1-.272.337.727.727 0 0 1-.95-.11.764.764 0 0 1-.201-.573zm-18.035 0v-1.267h-.534v.307a.939.939 0 0 0-.342-.281.908.908 0 0 0-.429-.09c-.34 0-.667.14-.908.388a1.353 1.353 0 0 0 0 1.875c.241.248.568.388.908.388a.908.908 0 0 0 .429-.09.938.938 0 0 0 .342-.281v.307h.534v-1.256zm-1.988 0a.782.782 0 0 1 .146-.413.745.745 0 0 1 .34-.262.72.72 0 0 1 .794.193.789.789 0 0 1 .144.828.761.761 0 0 1-.272.337.726.726 0 0 1-.407.128.718.718 0 0 1-.548-.235.764.764 0 0 1-.202-.576h.005z" fill="#231F20"/><path d="M19.805 3.018h-8.09v15.006h8.09V3.018z" fill="#FF5F00"/><path d="M12.23 10.523a9.783 9.783 0 0 1 .926-4.172 9.477 9.477 0 0 1 2.604-3.332 9.09 9.09 0 0 0-4.726-1.986 8.992 8.992 0 0 0-5.027.906 9.353 9.353 0 0 0-3.796 3.52 9.772 9.772 0 0 0-1.408 5.063c0 1.79.488 3.545 1.408 5.063a9.353 9.353 0 0 0 3.796 3.52 8.993 8.993 0 0 0 5.027.905 9.09 9.09 0 0 0 4.726-1.985 9.477 9.477 0 0 1-2.603-3.33 9.781 9.781 0 0 1-.928-4.172z" fill="#EB001B"/><path d="M30.717 10.522a9.77 9.77 0 0 1-1.408 5.063 9.352 9.352 0 0 1-3.797 3.52 8.993 8.993 0 0 1-5.027.905 9.09 9.09 0 0 1-4.726-1.986 9.494 9.494 0 0 0 2.602-3.332c.612-1.3.93-2.726.93-4.171a9.798 9.798 0 0 0-.93-4.171 9.493 9.493 0 0 0-2.602-3.332 9.09 9.09 0 0 1 4.726-1.987 8.993 8.993 0 0 1 5.027.905 9.353 9.353 0 0 1 3.797 3.52 9.771 9.771 0 0 1 1.408 5.064v.002zm-.882 5.912v-.308h.12v-.063h-.305v.063h.131v.308h.054zm.593 0v-.371h-.092l-.108.265-.108-.265h-.082v.37h.067v-.278l.1.242h.07l.1-.242v.281l.053-.002z" fill="#F79E1B"/></svg>