<svg width="57" height="36" fill="none" xmlns="http://www.w3.org/2000/svg"><path d="M2.947.378h51.458c1.045 0 1.892.848 1.892 1.893v31.458a1.892 1.892 0 0 1-1.892 1.892H2.947a1.892 1.892 0 0 1-1.893-1.892V2.271c0-1.045.848-1.893 1.893-1.893z" stroke="#B8B8B8" stroke-width=".757"/><path d="M11.25 16h-.726v-4.09H5.649V16h-.721V7.469h.72V11.3h4.876V7.469h.726V16zm5.772 0c-.07-.2-.115-.494-.135-.885-.246.32-.56.569-.943.744a2.89 2.89 0 0 1-1.207.258c-.61 0-1.104-.17-1.483-.51a1.664 1.664 0 0 1-.562-1.289c0-.617.256-1.105.768-1.464.515-.36 1.232-.54 2.15-.54h1.271v-.72c0-.453-.14-.809-.422-1.067-.277-.261-.683-.392-1.218-.392-.489 0-.893.125-1.213.375-.32.25-.48.55-.48.902l-.704-.006c0-.504.235-.94.703-1.306.47-.371 1.045-.557 1.729-.557.707 0 1.264.178 1.67.533.41.352.62.844.633 1.477v3c0 .613.064 1.072.193 1.377V16h-.75zm-2.203-.504c.469 0 .887-.113 1.254-.34.37-.226.64-.529.808-.908v-1.394h-1.254c-.699.007-1.246.136-1.64.386-.395.246-.592.586-.592 1.02 0 .355.13.65.393.885.265.234.609.351 1.03.351zm9.27-5.836V16h-.703v-5.736H20.79l-.111 2.373c-.047.879-.135 1.55-.264 2.015-.13.461-.32.801-.574 1.02-.254.219-.592.328-1.014.328h-.27v-.621l.217-.012c.402-.008.692-.203.867-.586.176-.383.291-1.066.346-2.05l.129-3.07h3.973zm1.26 3.076c0-.609.117-1.158.351-1.646a2.71 2.71 0 0 1 1.002-1.137c.434-.273.924-.41 1.47-.41.845 0 1.528.297 2.052.89.523.59.785 1.374.785 2.35v.147a3.76 3.76 0 0 1-.358 1.658 2.632 2.632 0 0 1-.996 1.13 2.74 2.74 0 0 1-1.47.4c-.84 0-1.524-.296-2.051-.886-.524-.593-.785-1.378-.785-2.355v-.14zm.703.194c0 .758.195 1.38.586 1.869.394.484.91.726 1.547.726.632 0 1.144-.242 1.535-.726.394-.489.591-1.131.591-1.928v-.135c0-.484-.09-.927-.269-1.33a2.146 2.146 0 0 0-.756-.931 1.92 1.92 0 0 0-1.113-.334 1.87 1.87 0 0 0-1.53.738c-.394.488-.591 1.129-.591 1.922v.129zm10.887.14h-.844V16h-.703v-2.93h-.838L32.21 16h-.89l2.625-3.252-2.332-3.088h.85l2.08 2.783h.849V9.66h.703v2.783h.855l2.08-2.783h.862l-2.344 3.088L40.18 16h-.897l-2.343-2.93zm6.463 3.047a2.767 2.767 0 0 1-1.465-.398 2.727 2.727 0 0 1-1.014-1.108 3.48 3.48 0 0 1-.363-1.6v-.251c0-.61.117-1.158.352-1.647a2.82 2.82 0 0 1 .99-1.148 2.424 2.424 0 0 1 1.37-.422c.77 0 1.38.264 1.83.791.452.523.679 1.24.679 2.15v.393h-4.524v.135c0 .718.205 1.318.616 1.798.414.477.933.715 1.558.715.375 0 .705-.068.99-.205.29-.136.551-.355.785-.656l.44.334c-.516.746-1.264 1.12-2.244 1.12zm-.13-5.976a1.76 1.76 0 0 0-1.335.58c-.36.386-.578.906-.656 1.558h3.803v-.076c-.02-.61-.194-1.105-.522-1.488s-.758-.574-1.29-.574zM51.776 16h-.703v-2.906h-3.416V16h-.703V9.66h.703v2.842h3.416V9.66h.703V16zM14.43 29h-.703v-5.736H10.31V29h-.703v-6.34h4.822V29zm6.516-6.34V29h-.703v-5.736h-2.596l-.111 2.373c-.047.879-.135 1.55-.264 2.015-.129.461-.32.801-.574 1.02-.254.219-.592.328-1.014.328h-.27v-.621l.217-.012c.403-.008.692-.203.868-.586.175-.383.29-1.066.345-2.05l.13-3.07h3.972zM26.594 29c-.07-.2-.116-.494-.135-.885-.246.32-.56.569-.944.744a2.889 2.889 0 0 1-1.207.258c-.609 0-1.103-.17-1.482-.51a1.664 1.664 0 0 1-.562-1.289c0-.617.255-1.105.767-1.465.516-.359 1.233-.539 2.15-.539h1.272v-.72c0-.453-.14-.809-.422-1.067-.277-.261-.683-.392-1.219-.392-.488 0-.892.125-1.213.375-.32.25-.48.55-.48.902l-.703-.006c0-.504.234-.94.703-1.306.469-.372 1.045-.557 1.729-.557.707 0 1.263.178 1.67.533.41.352.62.844.632 1.477v3c0 .613.065 1.072.194 1.377V29h-.75zm-2.204-.504c.47 0 .887-.113 1.254-.34.372-.226.641-.529.809-.908v-1.395h-1.254c-.7.008-1.246.137-1.64.387-.395.246-.592.586-.592 1.02 0 .355.13.65.392.884.266.235.61.352 1.031.352zm8.854-5.238h-2.308V29h-.703v-5.742h-2.221v-.598h5.232v.598zm2.9 5.86a2.766 2.766 0 0 1-1.464-.4 2.727 2.727 0 0 1-1.014-1.107 3.48 3.48 0 0 1-.363-1.6v-.251c0-.61.117-1.158.352-1.647a2.82 2.82 0 0 1 .99-1.148 2.424 2.424 0 0 1 1.371-.422c.77 0 1.379.264 1.828.791.453.523.68 1.24.68 2.15v.393H34v.135c0 .718.205 1.318.616 1.799.414.476.933.714 1.558.714.375 0 .705-.068.99-.205.29-.136.551-.355.786-.656l.439.334c-.516.746-1.264 1.12-2.244 1.12zm-.128-5.977c-.527 0-.973.193-1.336.58-.36.386-.578.906-.656 1.558h3.803v-.076c-.02-.61-.194-1.105-.522-1.488s-.758-.574-1.289-.574zm8.479 2.93h-.844V29h-.703v-2.93h-.838L39.766 29h-.89l2.625-3.252-2.332-3.088h.85l2.08 2.783h.849V22.66h.703v2.783h.855l2.08-2.783h.862l-2.344 3.088L47.735 29h-.896l-2.344-2.93z" fill="#666"/></svg>