<svg width="19" height="24" fill="none" xmlns="http://www.w3.org/2000/svg"><path d="M17.16 20.7h.038v-1c0-.951-.532-1.797-1.386-2.22l-3.548-1.76a1.81 1.81 0 0 1-1.016-1.63v-1.557l.045-.03.094-.062c.075-.11.182-.251.286-.39l.002-.001.08.06m5.406 8.59-9.876-8.288-.002-.002-.007-.01a6.78 6.78 0 0 1-.484-.713 6.42 6.42 0 0 1-.742-1.835v-.003l-.038-.147-.01-.037-.032-.022-.11-.073a.62.62 0 0 1-.288-.54V7.563c0-.193.062-.346.22-.471h.001l.008-.008.11-.11.03-.029V4.617L5.94 4.61l-.002-.031a2.677 2.677 0 0 1 .035-.546c.057-.346.2-.785.535-1.17V2.86c.565-.664 1.564-1.028 2.992-1.028 1.425 0 2.428.363 3.03.994.335.385.477.824.535 1.169a2.667 2.667 0 0 1 .034.546l-.002.031v.01h-.001v2.4l.03.029.11.11c.137.136.23.295.23.479v1.467c0 .28-.188.504-.453.603h-.002l-.185.074-.04.016-.016.04-.074.183-.002.005c-.256.763-.585 1.45-1.021 2.064l.081.058m5.407 8.59v.1c0 .02-.016.066-.094.136a1.587 1.587 0 0 1-.355.22c-.326.157-.817.322-1.47.472-1.302.3-3.235.539-5.742.539s-4.44-.238-5.743-.539c-.652-.15-1.143-.315-1.469-.472a1.586 1.586 0 0 1-.355-.22c-.078-.07-.094-.116-.094-.136v-1.173c0-.915.496-1.726 1.316-2.186l3.287-1.796L17.161 20.7zm-5.407-8.59c.444-.623.776-1.32 1.035-2.09l-1.33 2.493c.074-.11.184-.256.295-.403zm-5.768 2.659-.008.003L2.69 16.57l-.002.001C1.585 17.21.9 18.38.9 19.627V20.8c0 .492.395.87.967 1.16.579.293 1.375.517 2.256.684 1.763.337 3.895.456 5.377.456 1.482 0 3.614-.12 5.377-.456.881-.167 1.678-.39 2.256-.684.572-.29.967-.668.967-1.16v-1.1c0-1.32-.723-2.493-1.904-3.06l-3.546-1.76c-.305-.168-.501-.467-.501-.791v-1.215a8.495 8.495 0 0 0 .108-.14c.047-.06.096-.128.137-.208a10.68 10.68 0 0 0 1.1-2.102c.534-.246.872-.785.872-1.395V7.563c0-.38-.148-.722-.37-.99V4.675c.04-.256.104-1.448-.8-2.457C12.467 1.343 11.176.9 9.5.9c-1.677 0-2.968.444-3.734 1.317-.85.949-.812 2.094-.802 2.395l.001.055v1.907c-.222.27-.37.645-.37.99V9.03c0 .459.225.916.566 1.194.33 1.282 1 2.286 1.282 2.62v1.173c0 .333-.166.623-.457.752z" fill="#fff" stroke="#fff" stroke-width=".2"/></svg>