<svg width="74" height="22" fill="none" xmlns="http://www.w3.org/2000/svg"><path d="M9.55.234c.52-.278.574-.323 1.103-.054a2982.88 2982.88 0 0 0 7.373 4.018c.35.198.717.368 1.05.592-1.83 1.094-3.678 2.144-5.517 3.22-.242.153-.52.26-.718.476-.044.287-.062.592.018.888.162.215.395.35.646.439.144.063.26.045.377-.027 1.901-1.094 3.785-2.215 5.686-3.3V16.1a.744.744 0 0 1-.385.681 7225.042 7225.042 0 0 0-8.575 5.059c-.251.18-.583.224-.852.045L1.118 16.8c-.313-.161-.466-.529-.44-.87.01-3.148-.008-6.296.019-9.445 2.771 1.579 5.507 3.211 8.27 4.799.125.09.34.143.323.34.009 2.387 0 4.781.009 7.167-.018.207.107.332.278.43.107.064.43.234.547.234.17 0 .34-.116.493-.197.17-.099.413-.215.368-.458 0-2.69.009-5.39 0-8.081.027-.152-.09-.278-.215-.34-3.185-1.867-6.387-3.705-9.562-5.58C3.98 3.247 6.778 1.76 9.55.234z" fill="url(#a)"/><path d="M62.881 4.88a44.508 44.508 0 0 1 2.189-.01c-.01 3.822 0 7.634-.01 11.455-1.255.269-2.547.412-3.83.34-1.076-.08-2.188-.403-2.968-1.183-.754-.718-1.086-1.776-1.13-2.799-.036-1.05.25-2.152.942-2.969.538-.663 1.336-1.067 2.152-1.273.87-.216 1.785-.126 2.646.107.018-1.22.018-2.448.009-3.668zm-2.323 5.516c-.754.314-1.193 1.13-1.193 1.928-.054.861.287 1.812 1.085 2.234.754.368 1.624.332 2.422.18.027-1.427.018-2.862.009-4.288-.736-.278-1.579-.332-2.323-.054zM26.86 8.539a4.528 4.528 0 0 1 4.027.332v1.947c-.744-.52-1.641-.915-2.565-.852-.377.017-.79.25-.825.663-.072.377.242.673.583.772.852.278 1.83.278 2.565.852.619.475.79 1.318.727 2.063-.054.7-.377 1.408-.97 1.803-.708.484-1.596.582-2.43.582a5.01 5.01 0 0 1-2.457-.6 75.6 75.6 0 0 1 0-2.01c.897.53 1.928.96 2.986.817.386-.045.763-.36.736-.78-.045-.395-.448-.557-.771-.664-.87-.27-1.875-.368-2.539-1.05-.574-.6-.547-1.516-.403-2.287.134-.718.663-1.319 1.336-1.588zm5.453.36c1.49-.53 3.095-.88 4.673-.575 1.023.188 2.028.736 2.593 1.642.6.95.672 2.143.529 3.229-.135.968-.61 1.928-1.417 2.502-.87.646-1.983.852-3.041.87a67.08 67.08 0 0 1 0-1.893c.682-.026 1.417-.224 1.866-.78.43-.547.583-1.292.484-1.982-.099-.664-.511-1.31-1.157-1.552-.754-.287-1.597-.242-2.359-.018.018 3.086 0 6.171.009 9.257-.727.009-1.453.026-2.18-.01.01-3.56-.009-7.121 0-10.69zm9.804.089c.735-.646 1.758-.834 2.709-.816.843.009 1.749.188 2.395.78.654.583.923 1.462 1.04 2.305.099.69.108 1.4.09 2.09-1.776.009-3.552 0-5.32.009.09.709.602 1.354 1.32 1.507 1.22.269 2.43-.215 3.542-.673 0 .664.018 1.328-.009 1.991-1.327.395-2.726.69-4.117.467-.924-.153-1.794-.691-2.251-1.525-.592-1.076-.718-2.368-.574-3.57.099-.95.43-1.928 1.175-2.565zm1.498 1.417c-.368.305-.503.78-.583 1.229 1.04.009 2.08.009 3.121 0-.054-.377-.116-.772-.35-1.085-.215-.278-.574-.404-.914-.44-.44-.045-.924 0-1.274.296zm6.305-1.05c.61-.744 1.597-1.094 2.539-1.13.905-.044 1.883.027 2.646.566.726.493 1.085 1.354 1.237 2.188.144.798.18 1.615.135 2.413-1.776 0-3.552-.01-5.319 0 .099.708.619 1.363 1.337 1.507 1.21.25 2.412-.216 3.516-.682-.01.673.017 1.336-.018 2.01-1.364.376-2.799.717-4.207.43-.825-.162-1.597-.628-2.054-1.346-.547-.852-.727-1.892-.736-2.888.027-1.076.216-2.224.924-3.067zm1.965.978c-.458.278-.655.834-.718 1.337 1.032 0 2.063-.01 3.094.009-.009-.539-.197-1.184-.735-1.409-.52-.206-1.14-.215-1.641.063zM65.67 8.36a97.311 97.311 0 0 1 2.287 0c.484 1.372.977 2.745 1.462 4.126.09.269.18.547.314.798.6-1.632 1.157-3.283 1.74-4.924a95.786 95.786 0 0 1 2.269 0c-1.247 3.668-2.52 7.328-3.776 10.996-.045.1-.063.278-.215.252-.727.009-1.444 0-2.171 0 .287-.933.619-1.866.915-2.799a.384.384 0 0 0-.027-.314c-.933-2.709-1.866-5.417-2.798-8.135z" fill="#1A1A1A"/><defs><linearGradient id="a" x1=".676" y1="11" x2="19.57" y2="11" gradientUnits="userSpaceOnUse"><stop stop-color="#BB042B"/><stop offset="1" stop-color="#F8001A"/></linearGradient></defs></svg>