<svg width="20" height="20" fill="none" xmlns="http://www.w3.org/2000/svg"><path d="M10 0a9.969 9.969 0 0 1 7.071 2.929A9.97 9.97 0 0 1 20 10a9.967 9.967 0 0 1-2.929 7.07A9.969 9.969 0 0 1 10 20a9.977 9.977 0 0 1-7.071-2.928 10.028 10.028 0 0 1-2.143-3.178A9.98 9.98 0 0 1 0 10a9.98 9.98 0 0 1 2.929-7.071A9.969 9.969 0 0 1 10 0zm4.54 13.625a1.672 1.672 0 0 0-.076-.752 1.961 1.961 0 0 0-.396-.685 2.273 2.273 0 0 0-.357-.326 2.702 2.702 0 0 0-.527-.302 3.485 3.485 0 0 0-.727-.222 5.01 5.01 0 0 0-.955-.086h-.171c-.947 0-1.81-.006-2.592-.043s-1.48-.106-2.095-.231c-.615-.125-1.147-.306-1.595-.57a3.095 3.095 0 0 1-1.092-1.057l-1.241 5.113a53.383 53.383 0 0 1 2.264.575c.325.09.627.177.91.261.282.084.546.164.795.24.288.088.562.17.828.249.266.078.526.15.786.218a15.366 15.366 0 0 0 1.637.332 6.939 6.939 0 0 0 .723.067c.079.004.156.005.233.005.516 0 .988-.065 1.409-.19.421-.125.792-.31 1.105-.549.314-.24.57-.533.761-.876.191-.343.318-.735.373-1.171zm1.505-3.066 1.24-4.991a42.606 42.606 0 0 1-2.313-.59 45.97 45.97 0 0 1-.915-.272c-.284-.087-.547-.171-.796-.25-.274-.087-.533-.17-.786-.247a22.84 22.84 0 0 0-.748-.216 13.019 13.019 0 0 0-1.857-.359 7.722 7.722 0 0 0-.82-.044c-.534 0-1.023.059-1.458.172a3.676 3.676 0 0 0-1.137.498 2.647 2.647 0 0 0-.777.796c-.194.311-.32.667-.371 1.063-.016.12-.016.243-.003.366.013.123.04.246.08.367a1.931 1.931 0 0 0 .389.676 2.301 2.301 0 0 0 .798.581c.184.083.398.154.644.205.245.05.523.08.837.08h.075l.075-.003.078-.003c.025 0 .051-.003.077-.004a35.49 35.49 0 0 1 .756-.033 31.164 31.164 0 0 1 .718-.012c.809 0 1.542.046 2.203.137a8.857 8.857 0 0 1 1.764.413c.517.185.96.415 1.334.694.373.278.678.602.912.976z" fill="#000"/></svg>