<svg width="1920" height="100" fill="none" xmlns="http://www.w3.org/2000/svg"><path fill="#557FEB" d="M0 0h1920v100H0z"/><path d="m492 79-31 21h48.5L492 79zm955.5-58 31-21H1430l17.5 21zm-1368 0 31-21H62l17.5 21z" fill="#2150C9"/><path d="m1861 79-31 21h48.5L1861 79z" fill="#A8E8F9"/><path d="M393.68 40 425 0h-49l17.68 40zm-155.91 6.573L213.405 23 206 43.153l31.77 3.42zm1503 22L1716.4 45l-7.4 20.153 31.77 3.42zM1547.32 60 1516 100h49l-17.68-40z" fill="#2150C9"/><path d="M162.32 58 131 100h49l-17.68-42zm423.611-11.174L583.337 82l29.617-27.232-27.023-7.942zM1778.18 42l31.32-42h-49l17.68 42z" fill="#D6F12D"/><path d="m313.056 75.507-4.265-34.667L285 64.692l28.056 10.815z" fill="#A8E8F9"/><path d="M663.076 70.416 666.211 43l15.764 9.865-18.899 17.551zm532.364-15.011 12.42-14.753 3.82 18.199-16.24-3.446zM832.444 87.753 844.856 73l3.823 18.199-16.235-3.446zm247.996-68L1092.86 5l3.82 18.199-16.24-3.446z" fill="#2150C9"/><path d="m1627.44 25.493 4.27 34.667 23.79-23.852-28.06-10.815zm-365.23 26.113 4.26 34.667 23.79-23.852-28.05-10.815zM916.882 81.763l1.879 11.639 7.638-7.658-9.517-3.98zM1141 26.24l-24.91-3.031 17.11-17.116 7.8 20.148z" fill="#A8E8F9"/><path d="m1341.04 43.22 34.57 5.011-16.75-29.23-17.82 24.218z" fill="#2150C9"/><path d="M466.723 66.606 463.573 41 446 58.618l20.723 7.988zm240-30L703.573 11 686 28.618l20.723 7.988z" fill="#D6F12D"/><path d="M1479.53 28.628 1476.93 60l26.57-26.638-23.97-4.734zm-320.72 41.097L1142 89.292l24.86 1.134-8.05-20.701z" fill="#2150C9"/><path d="m1328.23 66.357 3.15 25.606 17.57-17.618-20.72-7.988zm-75.33-47.382 21.81 13.783L1272.21 8l-19.31 10.975zm-422.418-2.119 11.635 7.353L840.783 11l-10.301 5.856zm231.998 70 11.64 7.353L1072.78 81l-10.3 5.856z" fill="#D6F12D"/><path d="M50.723 66.606 47.573 41 30 58.618l20.723 7.988zm481-19L528.573 22 511 39.618l20.723 7.988z" fill="#2150C9"/><path d="M757.723 86.606 754.573 61 737 78.618l20.723 7.988z" fill="#A8E8F9"/><path d="M775.723 42.606 772.573 17 755 34.618l20.723 7.988zm1114.057-8.212L1892.93 60l17.57-17.618-20.72-7.988z" fill="#2150C9"/></svg>