<svg width="36" height="12" fill="none" xmlns="http://www.w3.org/2000/svg"><path d="M16.055 11.544h-2.881L14.986.224h2.834l-1.765 11.32zM10.804.224 8.11 7.994l-.325-1.678-.976-5.084S6.715.224 5.46.224H.953L.907.416S2.3.704 3.88 1.711l2.462 9.833h2.974L13.824.272h-3.02V.224zM33.2 11.544h2.603L33.526.224H31.25c-1.068 0-1.3.864-1.3.864l-4.276 10.456h2.974l.604-1.679h3.625l.325 1.68zm-3.159-4.029 1.487-4.22.837 4.22H30.04zm-4.135-4.557.372-2.446s-1.255-.48-2.556-.48c-1.394 0-4.786.624-4.786 3.742 0 2.926 3.95 2.974 3.95 4.46 0 1.535-3.532 1.248-4.694.288l-.418 2.542s1.255.624 3.206.624c1.952 0 4.88-1.055 4.88-3.885 0-2.926-3.997-3.214-3.997-4.46.047-1.248 2.835-1.104 4.043-.385z" fill="#0066B2"/><path d="m7.736 6.317-.929-5.085S6.714.225 5.46.225H.952L.906.417s2.137.48 4.228 2.206c1.998 1.631 2.602 3.694 2.602 3.694z" fill="#F9A533"/></svg>