<svg width="29" height="21" fill="none" xmlns="http://www.w3.org/2000/svg"><path fill-rule="evenodd" clip-rule="evenodd" d="M27.464 2.704C26.69 1.328 25.85 1.075 24.142.98 22.434.863 18.14.815 14.42.815c-3.727 0-8.022.048-9.728.162-1.706.098-2.547.35-3.328 1.727C.567 4.078.157 6.445.157 10.613v.014c0 4.15.41 6.534 1.207 7.894.78 1.376 1.62 1.626 3.326 1.742 1.708.1 6.003.158 9.73.158 3.72 0 8.014-.058 9.723-.157 1.71-.115 2.55-.365 3.323-1.741.803-1.36 1.21-3.745 1.21-7.894v-.015c0-4.169-.406-6.536-1.212-7.91z" fill="#F44336"/><path fill-rule="evenodd" clip-rule="evenodd" d="M10.852 15.965V5.271l8.912 5.347-8.912 5.347z" fill="#FAFAFA"/></svg>